<mxfile host="app.diagrams.net" modified="2024-04-06T22:06:01.925Z" agent="Mozilla/5.0 (Windows NT 10.0; Win64; x64) AppleWebKit/537.36 (KHTML, like Gecko) Chrome/123.0.0.0 Safari/537.36" etag="nANJ2Kuh8V-sYyU0JKf5" version="24.2.2" type="github">
  <diagram name="Page-1" id="e7e014a7-5840-1c2e-5031-d8a46d1fe8dd">
    <mxGraphModel dx="714" dy="405" grid="1" gridSize="10" guides="1" tooltips="1" connect="1" arrows="1" fold="1" page="1" pageScale="1" pageWidth="1169" pageHeight="826" background="none" math="0" shadow="0">
      <root>
        <mxCell id="0" />
        <mxCell id="1" parent="0" />
        <mxCell id="DnG9p90J1fAoUzaRt4j_-64" style="edgeStyle=none;curved=1;rounded=0;orthogonalLoop=1;jettySize=auto;html=1;exitX=1;exitY=0.3333333333333333;exitDx=0;exitDy=0;exitPerimeter=0;entryX=0;entryY=0.5;entryDx=0;entryDy=0;fontSize=12;startSize=8;endSize=8;" edge="1" parent="1" source="DnG9p90J1fAoUzaRt4j_-42" target="DnG9p90J1fAoUzaRt4j_-63">
          <mxGeometry relative="1" as="geometry" />
        </mxCell>
        <mxCell id="DnG9p90J1fAoUzaRt4j_-42" value="Actor" style="shape=umlActor;verticalLabelPosition=bottom;verticalAlign=top;html=1;outlineConnect=0;" vertex="1" parent="1">
          <mxGeometry x="380" y="30" width="30" height="60" as="geometry" />
        </mxCell>
        <mxCell id="DnG9p90J1fAoUzaRt4j_-76" style="edgeStyle=none;curved=1;rounded=0;orthogonalLoop=1;jettySize=auto;html=1;exitX=0;exitY=1;exitDx=0;exitDy=0;exitPerimeter=0;fontSize=12;startSize=8;endSize=8;" edge="1" parent="1" source="DnG9p90J1fAoUzaRt4j_-44" target="DnG9p90J1fAoUzaRt4j_-75">
          <mxGeometry relative="1" as="geometry" />
        </mxCell>
        <mxCell id="DnG9p90J1fAoUzaRt4j_-79" style="edgeStyle=none;curved=1;rounded=0;orthogonalLoop=1;jettySize=auto;html=1;exitX=0.5;exitY=0.5;exitDx=0;exitDy=0;exitPerimeter=0;entryX=0;entryY=0.5;entryDx=0;entryDy=0;fontSize=12;startSize=8;endSize=8;" edge="1" parent="1" source="DnG9p90J1fAoUzaRt4j_-44" target="DnG9p90J1fAoUzaRt4j_-45">
          <mxGeometry relative="1" as="geometry" />
        </mxCell>
        <mxCell id="DnG9p90J1fAoUzaRt4j_-80" style="edgeStyle=none;curved=1;rounded=0;orthogonalLoop=1;jettySize=auto;html=1;exitX=1;exitY=1;exitDx=0;exitDy=0;exitPerimeter=0;fontSize=12;startSize=8;endSize=8;" edge="1" parent="1" source="DnG9p90J1fAoUzaRt4j_-44" target="DnG9p90J1fAoUzaRt4j_-77">
          <mxGeometry relative="1" as="geometry" />
        </mxCell>
        <mxCell id="DnG9p90J1fAoUzaRt4j_-44" value="Actor" style="shape=umlActor;verticalLabelPosition=bottom;verticalAlign=top;html=1;outlineConnect=0;" vertex="1" parent="1">
          <mxGeometry x="140" y="160" width="30" height="60" as="geometry" />
        </mxCell>
        <mxCell id="DnG9p90J1fAoUzaRt4j_-45" value="Use the application" style="ellipse;whiteSpace=wrap;html=1;" vertex="1" parent="1">
          <mxGeometry x="290" y="180" width="200" height="80" as="geometry" />
        </mxCell>
        <mxCell id="DnG9p90J1fAoUzaRt4j_-48" value="admin" style="text;html=1;align=center;verticalAlign=middle;whiteSpace=wrap;rounded=0;fontSize=16;" vertex="1" parent="1">
          <mxGeometry x="125" y="120" width="60" height="30" as="geometry" />
        </mxCell>
        <mxCell id="DnG9p90J1fAoUzaRt4j_-50" value="User" style="text;html=1;align=center;verticalAlign=middle;whiteSpace=wrap;rounded=0;fontSize=16;" vertex="1" parent="1">
          <mxGeometry x="365" width="60" height="30" as="geometry" />
        </mxCell>
        <mxCell id="DnG9p90J1fAoUzaRt4j_-61" style="edgeStyle=none;curved=1;rounded=0;orthogonalLoop=1;jettySize=auto;html=1;exitX=0;exitY=1;exitDx=0;exitDy=0;exitPerimeter=0;entryX=1;entryY=0.5;entryDx=0;entryDy=0;fontSize=12;startSize=8;endSize=8;" edge="1" parent="1" source="DnG9p90J1fAoUzaRt4j_-51" target="DnG9p90J1fAoUzaRt4j_-45">
          <mxGeometry relative="1" as="geometry" />
        </mxCell>
        <mxCell id="DnG9p90J1fAoUzaRt4j_-72" style="edgeStyle=none;curved=1;rounded=0;orthogonalLoop=1;jettySize=auto;html=1;exitX=0.75;exitY=0.1;exitDx=0;exitDy=0;exitPerimeter=0;entryX=0;entryY=0;entryDx=0;entryDy=0;fontSize=12;startSize=8;endSize=8;" edge="1" parent="1" source="DnG9p90J1fAoUzaRt4j_-51" target="DnG9p90J1fAoUzaRt4j_-69">
          <mxGeometry relative="1" as="geometry" />
        </mxCell>
        <mxCell id="DnG9p90J1fAoUzaRt4j_-73" style="edgeStyle=none;curved=1;rounded=0;orthogonalLoop=1;jettySize=auto;html=1;exitX=1;exitY=0.3333333333333333;exitDx=0;exitDy=0;exitPerimeter=0;entryX=0;entryY=0;entryDx=0;entryDy=0;fontSize=12;startSize=8;endSize=8;" edge="1" parent="1" source="DnG9p90J1fAoUzaRt4j_-51" target="DnG9p90J1fAoUzaRt4j_-71">
          <mxGeometry relative="1" as="geometry" />
        </mxCell>
        <mxCell id="DnG9p90J1fAoUzaRt4j_-74" style="edgeStyle=none;curved=1;rounded=0;orthogonalLoop=1;jettySize=auto;html=1;exitX=0.5;exitY=0.5;exitDx=0;exitDy=0;exitPerimeter=0;entryX=0;entryY=0.5;entryDx=0;entryDy=0;fontSize=12;startSize=8;endSize=8;" edge="1" parent="1" source="DnG9p90J1fAoUzaRt4j_-51" target="DnG9p90J1fAoUzaRt4j_-70">
          <mxGeometry relative="1" as="geometry" />
        </mxCell>
        <mxCell id="DnG9p90J1fAoUzaRt4j_-51" value="Actor" style="shape=umlActor;verticalLabelPosition=bottom;verticalAlign=top;html=1;outlineConnect=0;" vertex="1" parent="1">
          <mxGeometry x="590" y="160" width="30" height="60" as="geometry" />
        </mxCell>
        <mxCell id="DnG9p90J1fAoUzaRt4j_-57" style="edgeStyle=none;curved=1;rounded=0;orthogonalLoop=1;jettySize=auto;html=1;exitX=0.75;exitY=0.1;exitDx=0;exitDy=0;exitPerimeter=0;entryX=0;entryY=1;entryDx=0;entryDy=0;entryPerimeter=0;fontSize=12;startSize=8;endSize=8;" edge="1" parent="1" source="DnG9p90J1fAoUzaRt4j_-44" target="DnG9p90J1fAoUzaRt4j_-42">
          <mxGeometry relative="1" as="geometry" />
        </mxCell>
        <mxCell id="DnG9p90J1fAoUzaRt4j_-59" value="Client" style="text;html=1;align=center;verticalAlign=middle;whiteSpace=wrap;rounded=0;fontSize=16;" vertex="1" parent="1">
          <mxGeometry x="575" y="120" width="60" height="30" as="geometry" />
        </mxCell>
        <mxCell id="DnG9p90J1fAoUzaRt4j_-62" style="edgeStyle=none;curved=1;rounded=0;orthogonalLoop=1;jettySize=auto;html=1;exitX=0.25;exitY=0.1;exitDx=0;exitDy=0;exitPerimeter=0;entryX=1;entryY=1;entryDx=0;entryDy=0;entryPerimeter=0;fontSize=12;startSize=8;endSize=8;" edge="1" parent="1" source="DnG9p90J1fAoUzaRt4j_-51" target="DnG9p90J1fAoUzaRt4j_-42">
          <mxGeometry relative="1" as="geometry" />
        </mxCell>
        <mxCell id="DnG9p90J1fAoUzaRt4j_-63" value="Inscription/Connexion" style="ellipse;whiteSpace=wrap;html=1;" vertex="1" parent="1">
          <mxGeometry x="610" y="10" width="190" height="80" as="geometry" />
        </mxCell>
        <mxCell id="DnG9p90J1fAoUzaRt4j_-65" value="Modify Password" style="ellipse;whiteSpace=wrap;html=1;" vertex="1" parent="1">
          <mxGeometry x="1030" y="95" width="120" height="80" as="geometry" />
        </mxCell>
        <mxCell id="DnG9p90J1fAoUzaRt4j_-66" value="Autentification" style="ellipse;whiteSpace=wrap;html=1;" vertex="1" parent="1">
          <mxGeometry x="930" y="10" width="120" height="80" as="geometry" />
        </mxCell>
        <mxCell id="DnG9p90J1fAoUzaRt4j_-69" value="Take/Dalete/Update an Appointment" style="ellipse;whiteSpace=wrap;html=1;" vertex="1" parent="1">
          <mxGeometry x="900" y="150" width="120" height="80" as="geometry" />
        </mxCell>
        <mxCell id="DnG9p90J1fAoUzaRt4j_-70" value="Search for an appointment" style="ellipse;whiteSpace=wrap;html=1;" vertex="1" parent="1">
          <mxGeometry x="900" y="333" width="120" height="80" as="geometry" />
        </mxCell>
        <mxCell id="DnG9p90J1fAoUzaRt4j_-71" value="Visualize list of appointments" style="ellipse;whiteSpace=wrap;html=1;" vertex="1" parent="1">
          <mxGeometry x="900" y="240" width="120" height="80" as="geometry" />
        </mxCell>
        <mxCell id="DnG9p90J1fAoUzaRt4j_-75" value="Add an appointment" style="ellipse;whiteSpace=wrap;html=1;" vertex="1" parent="1">
          <mxGeometry x="20" y="330" width="120" height="80" as="geometry" />
        </mxCell>
        <mxCell id="DnG9p90J1fAoUzaRt4j_-77" value="Delete an appointment" style="ellipse;whiteSpace=wrap;html=1;" vertex="1" parent="1">
          <mxGeometry x="220" y="330" width="120" height="80" as="geometry" />
        </mxCell>
        <mxCell id="DnG9p90J1fAoUzaRt4j_-89" style="edgeStyle=none;curved=1;rounded=0;orthogonalLoop=1;jettySize=auto;html=1;exitX=0.5;exitY=1;exitDx=0;exitDy=0;entryX=0.5;entryY=0;entryDx=0;entryDy=0;fontSize=12;startSize=8;endSize=8;" edge="1" parent="1" source="DnG9p90J1fAoUzaRt4j_-82" target="DnG9p90J1fAoUzaRt4j_-83">
          <mxGeometry relative="1" as="geometry" />
        </mxCell>
        <mxCell id="DnG9p90J1fAoUzaRt4j_-82" value="System" style="rounded=1;whiteSpace=wrap;html=1;" vertex="1" parent="1">
          <mxGeometry x="545" y="400" width="185" height="73" as="geometry" />
        </mxCell>
        <mxCell id="DnG9p90J1fAoUzaRt4j_-83" value="auto-deleting when appointment date passed/send a massage after taking appointment" style="ellipse;whiteSpace=wrap;html=1;" vertex="1" parent="1">
          <mxGeometry x="460" y="580" width="380" height="70" as="geometry" />
        </mxCell>
        <mxCell id="DnG9p90J1fAoUzaRt4j_-90" value="" style="endArrow=classic;html=1;rounded=0;fontSize=12;startSize=8;endSize=8;curved=1;exitX=0.359;exitY=-0.026;exitDx=0;exitDy=0;exitPerimeter=0;" edge="1" parent="1" source="DnG9p90J1fAoUzaRt4j_-82" target="DnG9p90J1fAoUzaRt4j_-51">
          <mxGeometry relative="1" as="geometry">
            <mxPoint x="545" y="340" as="sourcePoint" />
            <mxPoint x="650" y="270" as="targetPoint" />
          </mxGeometry>
        </mxCell>
        <mxCell id="DnG9p90J1fAoUzaRt4j_-91" value="mail with an authentification code" style="edgeLabel;resizable=0;html=1;fontSize=12;;align=center;verticalAlign=middle;" connectable="0" vertex="1" parent="DnG9p90J1fAoUzaRt4j_-90">
          <mxGeometry relative="1" as="geometry" />
        </mxCell>
        <mxCell id="DnG9p90J1fAoUzaRt4j_-92" value="Source" style="edgeLabel;resizable=0;html=1;fontSize=12;;align=left;verticalAlign=bottom;" connectable="0" vertex="1" parent="DnG9p90J1fAoUzaRt4j_-90">
          <mxGeometry x="-1" relative="1" as="geometry" />
        </mxCell>
        <mxCell id="DnG9p90J1fAoUzaRt4j_-97" value="" style="endArrow=none;dashed=1;html=1;rounded=0;fontSize=12;startSize=8;endSize=8;curved=1;exitX=1;exitY=1;exitDx=0;exitDy=0;" edge="1" parent="1" source="DnG9p90J1fAoUzaRt4j_-63" target="DnG9p90J1fAoUzaRt4j_-65">
          <mxGeometry width="50" height="50" relative="1" as="geometry">
            <mxPoint x="770" y="80" as="sourcePoint" />
            <mxPoint x="880" y="40" as="targetPoint" />
          </mxGeometry>
        </mxCell>
        <mxCell id="DnG9p90J1fAoUzaRt4j_-99" value="" style="endArrow=none;dashed=1;html=1;dashPattern=1 3;strokeWidth=2;rounded=0;fontSize=12;startSize=8;endSize=8;curved=1;entryX=0;entryY=0.5;entryDx=0;entryDy=0;exitX=1.006;exitY=0.401;exitDx=0;exitDy=0;exitPerimeter=0;" edge="1" parent="1" source="DnG9p90J1fAoUzaRt4j_-63" target="DnG9p90J1fAoUzaRt4j_-66">
          <mxGeometry width="50" height="50" relative="1" as="geometry">
            <mxPoint x="860" y="75" as="sourcePoint" />
            <mxPoint x="910" y="25" as="targetPoint" />
          </mxGeometry>
        </mxCell>
      </root>
    </mxGraphModel>
  </diagram>
</mxfile>
